<svg width="120" height="120" viewBox="0 0 120 120" fill="none" xmlns="http://www.w3.org/2000/svg">
<circle cx="60" cy="60" r="60" fill="#164067" fill-opacity="0.5"/>
<g clip-path="url(#clip0)">
<path d="M30.6766 87.607L72.223 90.3858C72.998 90.4377 73.6682 89.8514 73.72 89.0766L77.7127 29.3789C77.7646 28.6039 77.1783 27.9338 76.4035 27.8819L34.8571 25.1032C34.0821 25.0513 33.4121 25.6375 33.3602 26.4124L29.3673 86.1101C29.3155 86.8851 29.9016 87.5553 30.6766 87.607Z" fill="#FAE19E"/>
<path d="M26.4609 94.8999H58.2619L69.5063 83.7054V33.6626C69.5063 32.8859 68.8767 32.2563 68.1 32.2563H26.4609C25.6843 32.2563 25.0547 32.8859 25.0547 33.6626V93.4938C25.0547 94.2703 25.6843 94.8999 26.4609 94.8999Z" fill="#FFF9E9"/>
<path d="M68.1002 32.2563H62.4752C63.2518 32.2563 63.8814 32.8859 63.8814 33.6626V83.7055L63.8451 89.3415L69.5064 83.7055V33.6626C69.5064 32.8859 68.8768 32.2563 68.1002 32.2563Z" fill="#FFF4D6"/>
<path d="M58.2619 94.8998V85.0205C58.2619 84.2438 58.8915 83.6143 59.6682 83.6143H69.5063L58.2619 94.8998Z" fill="#FFEEC2"/>
<path d="M89.902 58.9565L85.209 58.9797V51.8323C85.209 50.541 86.2585 49.4892 87.5537 49.4828H87.5547C88.8508 49.4763 89.9021 50.5193 89.9021 51.8118V58.9565H89.902Z" fill="#FED23A"/>
<path d="M87.5569 94.8998C86.0997 93.4546 85.2793 91.4879 85.2776 89.4356L85.2689 79.0331C85.2689 78.9426 85.3426 78.8687 85.4336 78.8682L89.6577 78.8472C89.7487 78.8468 89.8224 78.9199 89.8224 79.0105L89.8311 89.4279C89.8328 91.4713 89.0226 93.4317 87.579 94.8779L87.5569 94.8998Z" fill="#54B1FF"/>
<path d="M87.5567 89.9999H87.5553C85.5256 90.01 83.8794 88.3768 83.8794 86.3528V56.3256C83.8794 55.3724 84.6496 54.5983 85.6028 54.5936L89.4877 54.5744C90.4476 54.5696 91.2283 55.3464 91.2283 56.3063V86.3207C91.2283 88.3429 89.5848 89.9898 87.5567 89.9999Z" fill="#FDF385"/>
<path d="M89.4877 54.5742L86.1451 54.5908C86.9941 54.7019 87.6509 55.4261 87.6509 56.3062V86.3208C87.6509 87.7021 86.8838 88.9078 85.7515 89.5368C86.2845 89.8343 86.8996 90.0033 87.5552 89.9999H87.5566C89.5847 89.9898 91.2282 88.3429 91.2282 86.3208V56.3063C91.2283 55.3464 90.4476 54.5695 89.4877 54.5742Z" fill="#FAEE6E"/>
<path d="M93.0854 58.8644L83.0146 58.9143C81.9873 58.9194 81.1547 59.7536 81.1547 60.7773C81.1547 61.8012 81.9873 62.627 83.0146 62.6219L91.2255 62.5811V73.478C91.2255 74.5019 92.0582 75.3277 93.0854 75.3226C94.1127 75.3175 94.9453 74.4833 94.9453 73.4596V60.7088C94.9453 59.6851 94.1126 58.8593 93.0854 58.8644Z" fill="#54B1FF"/>
<path d="M93.0854 58.8644L87.6797 58.8908L87.6562 62.5908L91.2254 62.5814V73.4783C91.2254 74.5022 92.058 75.3279 93.0853 75.3229C94.1126 75.3178 94.9452 74.4836 94.9452 73.4599V60.7091C94.9453 59.6851 94.1126 58.8593 93.0854 58.8644Z" fill="#3DA7FF"/>
<path d="M76.4738 26.8296L34.9275 24.0507C33.5732 23.961 32.3985 24.988 32.3078 26.3419L31.9829 31.2015H26.4609C25.104 31.2015 24 32.3056 24 33.6625V93.4936C24 94.8505 25.104 95.9546 26.4609 95.9546H58.262C58.5376 95.9546 58.8107 95.8419 59.0062 95.6473L63.8069 90.8679C63.8557 90.8783 63.9054 90.8866 63.9566 90.8899L72.1525 91.4381C73.4606 91.5245 74.6845 90.4605 74.7722 89.1469L78.765 29.4495C78.8549 28.1096 77.8135 26.9192 76.4738 26.8296ZM59.3167 92.3471V85.0205C59.3167 84.8268 59.4745 84.669 59.6683 84.669H66.9667L59.3167 92.3471ZM72.6675 89.0063C72.6332 89.2186 72.5085 89.3277 72.2934 89.3335L65.7853 88.8981L70.2504 84.4528C70.4493 84.255 70.5611 83.986 70.5611 83.7054V33.6626C70.5611 32.3057 69.457 31.2017 68.1001 31.2017H57.1324C55.7687 31.2017 55.7687 33.311 57.1324 33.311H68.1001C68.2941 33.311 68.4517 33.4688 68.4517 33.6626V82.5596H59.6683C58.3114 82.5596 57.2073 83.6637 57.2073 85.0205V93.8452H26.4609C26.2672 93.8452 26.1094 93.6874 26.1094 93.4936V33.6626C26.1094 33.4688 26.2672 33.311 26.4609 33.311H51.5158C52.8795 33.311 52.8795 31.2017 51.5158 31.2017H34.0969L34.4124 26.4829C34.4467 26.2704 34.5715 26.1614 34.7866 26.1556L76.3329 28.9344C76.5454 28.9687 76.6545 29.0934 76.6603 29.3086L72.6675 89.0063Z" fill="#060606"/>
<path d="M61.6632 57.3347H32.8979C32.3154 57.3347 31.8432 57.8069 31.8432 58.3894C31.8432 58.9719 32.3154 59.4441 32.8979 59.4441H61.6632C62.2458 59.4441 62.7178 58.9719 62.7178 58.3894C62.7178 57.8069 62.2458 57.3347 61.6632 57.3347Z" fill="#060606"/>
<path d="M61.6632 64.6873H32.8979C32.3154 64.6873 31.8432 65.1595 31.8432 65.742C31.8432 66.3245 32.3154 66.7967 32.8979 66.7967H61.6632C62.2458 66.7967 62.7178 66.3245 62.7178 65.742C62.7178 65.1595 62.2458 64.6873 61.6632 64.6873Z" fill="#060606"/>
<path d="M31.8432 51.0368C31.8432 51.6193 32.3154 52.0915 32.8979 52.0915H61.6632C62.2458 52.0915 62.7178 51.6193 62.7178 51.0368C62.7178 50.4543 62.2458 49.9821 61.6632 49.9821H32.8979C32.3154 49.9821 31.8432 50.4543 31.8432 51.0368Z" fill="#060606"/>
<path d="M36.9103 43.6842C36.9103 44.2667 37.3826 44.7389 37.965 44.7389H56.596C57.1785 44.7389 57.6507 44.2667 57.6507 43.6842C57.6507 43.1017 57.1785 42.6295 56.596 42.6295H37.965C37.3826 42.6295 36.9103 43.1017 36.9103 43.6842Z" fill="#060606"/>
<path d="M51.3874 85.7044C49.4906 85.7095 47.5937 85.7135 45.6968 85.7165C45.0592 85.7175 44.4217 85.7183 43.7843 85.7187C42.629 85.7196 41.8507 85.4877 41.5919 84.217C41.3731 83.1426 39.8532 83.2871 39.5579 84.217C38.8281 86.5144 37.621 85.6143 36.9448 84.0689C36.2703 82.5273 36.0973 80.8018 35.8027 79.1611C35.5861 77.9555 33.7628 78.2935 33.731 79.4415C33.6891 80.9534 33.5479 82.4412 33.1641 83.9075C32.7683 85.4203 32.175 86.8743 31.586 88.3197C31.0726 89.5799 33.1142 90.122 33.62 88.8806C34.1419 87.5997 34.6645 86.3119 35.0534 84.9833C35.7762 86.7214 37.2716 88.6873 39.4025 87.5287C39.799 87.3132 40.1692 87.0067 40.4942 86.6494C41.6023 87.9299 43.2517 87.829 44.7951 87.8271C46.9926 87.8243 49.1902 87.8195 51.3877 87.8138C52.7446 87.8103 52.7471 85.7009 51.3874 85.7044Z" fill="#060606"/>
<path d="M95.1467 58.6555C94.5986 58.1101 93.8452 57.8304 93.0802 57.8097L92.2831 57.8137V56.3063C92.2831 55.3882 91.7378 54.4181 90.9566 53.9351V51.8119C90.9566 47.4429 84.1543 47.4618 84.1543 51.8325V53.9559C83.3585 54.4478 82.8247 55.3257 82.8247 56.3257V57.8701C79.3138 58.1091 79.3039 63.4592 82.8286 63.6683C82.8511 68.3898 82.85 73.0339 82.8247 77.8344C82.8178 79.1583 84.9269 79.2359 84.9341 77.8456C84.9594 73.041 84.9605 68.3927 84.9381 63.6673L90.1709 63.6413C90.1709 63.6413 90.1642 79.2293 90.1642 86.2516C90.1642 89.6741 84.9303 89.6969 84.9303 86.216L84.9321 84.2926C85.0144 82.9314 82.9089 82.8044 82.8265 84.1655V85.9703C82.8265 87.5172 83.3049 88.8272 84.2311 89.7488C84.3135 91.9556 85.2433 94.091 86.8142 95.6488C87.2649 96.096 87.8889 95.9593 88.3251 95.6232C89.9233 94.0222 90.8238 91.9116 90.8801 89.6588C91.5763 88.9653 92.2734 88.2671 92.2734 85.8765L92.2743 76.2647C94.0982 76.7834 96 75.372 96 73.4597V60.709C96 59.9323 95.6969 59.203 95.1467 58.6555ZM84.9341 57.8501V56.3256C84.9341 56.0135 85.1482 55.7518 85.4365 55.6741L89.6588 55.6531C89.7769 55.6824 89.8859 55.7382 89.9742 55.8262C90.1029 55.9543 90.1737 56.1248 90.1737 56.3063V57.8242L84.9341 57.8501ZM87.5597 50.5376C88.2071 50.5376 88.8471 51.1724 88.8471 51.8119V53.5228L86.2635 53.5356V51.8325C86.2637 51.1219 86.8447 50.5411 87.5597 50.5376ZM87.5581 93.2737C87.0678 92.5787 86.7131 91.7927 86.5151 90.9666C86.8416 91.0373 87.1724 91.0741 87.5033 91.0741C87.8727 91.0741 88.242 91.0283 88.6056 90.9396C88.4124 91.7783 88.0583 92.569 87.5581 93.2737ZM93.8906 73.4597C93.8906 74.4583 92.2802 74.5369 92.2802 73.4782C92.2802 73.4782 92.282 63.4975 92.2831 62.5825C92.2838 61.9925 91.7933 61.5266 91.2203 61.5266L83.0093 61.5674C81.9909 61.5674 82.0147 59.974 83.0197 59.969L93.0906 59.9191C93.5776 59.9606 93.8442 60.224 93.8905 60.709V73.4597H93.8906Z" fill="#060606"/>
</g>
<defs>
<clipPath id="clip0">
<rect x="24" y="24" width="72" height="72" fill="white"/>
</clipPath>
</defs>
</svg>
