<svg width="227" height="30" viewBox="0 0 227 30" fill="none" xmlns="http://www.w3.org/2000/svg">
<path d="M17.2695 5.08475C17.1476 5.28814 17.0121 5.44407 16.8631 5.55254C16.7277 5.64746 16.5584 5.69492 16.3552 5.69492C16.1249 5.69492 15.854 5.57966 15.5425 5.34915C15.231 5.11864 14.8382 4.8678 14.3641 4.59661C13.9036 4.31186 13.3415 4.05424 12.6778 3.82373C12.0277 3.59322 11.2353 3.47797 10.3007 3.47797C9.42032 3.47797 8.6415 3.6 7.96427 3.84407C7.30058 4.07458 6.73847 4.39322 6.27795 4.8C5.83098 5.20678 5.49236 5.68814 5.2621 6.24407C5.03185 6.78644 4.91672 7.37627 4.91672 8.01356C4.91672 8.82712 5.11311 9.50509 5.50591 10.0475C5.91225 10.5763 6.44049 11.0305 7.09064 11.4102C7.75432 11.7898 8.49928 12.122 9.32551 12.4068C10.1653 12.678 11.0186 12.9627 11.8854 13.261C12.7659 13.5593 13.6192 13.8983 14.4454 14.278C15.2852 14.6441 16.0301 15.1119 16.6803 15.6814C17.344 16.2508 17.8722 16.9492 18.265 17.7763C18.6713 18.6034 18.8745 19.6203 18.8745 20.8271C18.8745 22.1017 18.6578 23.3017 18.2244 24.4271C17.7909 25.539 17.1543 26.5085 16.3146 27.3356C15.4883 28.1627 14.4657 28.8136 13.2467 29.2881C12.0412 29.7627 10.6664 30 9.12234 30C7.22608 30 5.50591 29.661 3.96182 28.983C2.41772 28.2915 1.09712 27.3627 0 26.1966L1.13775 24.3254C1.24611 24.1763 1.37478 24.0542 1.52378 23.9593C1.68631 23.8508 1.86239 23.7966 2.05202 23.7966C2.2281 23.7966 2.4245 23.8712 2.64121 24.0203C2.87147 24.1559 3.12882 24.3322 3.41326 24.5492C3.6977 24.7661 4.02277 25.0034 4.38847 25.261C4.75418 25.5186 5.16729 25.7559 5.62781 25.9729C6.10187 26.1898 6.63689 26.3729 7.23285 26.522C7.82882 26.6576 8.49928 26.7254 9.24424 26.7254C10.1788 26.7254 11.0118 26.5966 11.7432 26.339C12.4746 26.0814 13.0909 25.722 13.5921 25.261C14.1068 24.7864 14.4996 24.2237 14.7705 23.5729C15.0414 22.922 15.1768 22.1966 15.1768 21.3966C15.1768 20.5153 14.9736 19.7966 14.5673 19.2407C14.1745 18.6712 13.653 18.1966 13.0029 17.8169C12.3527 17.4373 11.6078 17.1186 10.768 16.861C9.92824 16.5898 9.07493 16.3186 8.20807 16.0475C7.34121 15.7627 6.4879 15.4373 5.64813 15.0712C4.80836 14.7051 4.0634 14.2305 3.41326 13.6475C2.76311 13.0644 2.23487 12.339 1.82853 11.4712C1.43573 10.5898 1.23934 9.50509 1.23934 8.21695C1.23934 7.18644 1.43573 6.18983 1.82853 5.22712C2.23487 4.26441 2.81729 3.41017 3.57579 2.66441C4.34784 1.91865 5.28919 1.32204 6.39986 0.874578C7.52406 0.427119 8.81081 0.20339 10.2601 0.20339C11.8854 0.20339 13.3618 0.461018 14.6892 0.976274C16.0301 1.49153 17.2085 2.23729 18.2244 3.21356L17.2695 5.08475Z" fill="#FBFBFB"/>
<path d="M37.2427 17.1254C37.2427 16.2847 37.1208 15.5186 36.8769 14.8271C36.6467 14.122 36.3013 13.5186 35.8408 13.0169C35.3938 12.5017 34.8452 12.1085 34.1951 11.8373C33.545 11.5525 32.8068 11.4102 31.9806 11.4102C30.2468 11.4102 28.8721 11.9186 27.8562 12.9356C26.8539 13.939 26.2308 15.3356 25.987 17.1254H37.2427ZM40.1683 26.7864C39.7213 27.3288 39.1863 27.8034 38.5633 28.2102C37.9402 28.6034 37.2697 28.9288 36.5519 29.1864C35.8476 29.4441 35.1161 29.6339 34.3576 29.7559C33.5991 29.8915 32.8474 29.9593 32.1025 29.9593C30.6803 29.9593 29.3664 29.722 28.161 29.2475C26.969 28.7593 25.9329 28.0542 25.0525 27.1322C24.1856 26.1966 23.5084 25.0441 23.0208 23.6746C22.5331 22.3051 22.2893 20.7322 22.2893 18.9559C22.2893 17.5186 22.5061 16.1763 22.9395 14.9288C23.3865 13.6814 24.0231 12.6034 24.8493 11.6949C25.6755 10.7729 26.6846 10.0542 27.8765 9.53898C29.0684 9.01017 30.4094 8.74576 31.8993 8.74576C33.1318 8.74576 34.2696 8.95593 35.3125 9.37627C36.369 9.78305 37.2765 10.3797 38.035 11.1661C38.8071 11.939 39.4098 12.9017 39.8432 14.0542C40.2767 15.1932 40.4934 16.4949 40.4934 17.9593C40.4934 18.5288 40.4324 18.9085 40.3105 19.0983C40.1886 19.2881 39.9584 19.3831 39.6197 19.3831H25.8651C25.9058 20.6847 26.0818 21.8169 26.3934 22.7797C26.7184 23.7424 27.1654 24.5492 27.7343 25.2C28.3032 25.8373 28.9804 26.3186 29.766 26.6441C30.5516 26.9559 31.432 27.1119 32.4072 27.1119C33.3147 27.1119 34.0935 27.0102 34.7437 26.8068C35.4074 26.5898 35.9762 26.3593 36.4503 26.1153C36.9244 25.8712 37.3172 25.6475 37.6287 25.4441C37.9538 25.2271 38.2314 25.1186 38.4617 25.1186C38.7597 25.1186 38.9899 25.2339 39.1525 25.4644L40.1683 26.7864Z" fill="#FBFBFB"/>
<path d="M48.3691 13.2C49.0192 11.7898 49.8184 10.6915 50.7665 9.90509C51.7146 9.10509 52.8727 8.70509 54.2407 8.70509C54.6741 8.70509 55.0872 8.75254 55.48 8.84746C55.8864 8.94237 56.2453 9.09153 56.5568 9.29491L56.2927 12C56.2114 12.339 56.0083 12.5085 55.6832 12.5085C55.4936 12.5085 55.2159 12.4678 54.8502 12.3864C54.4845 12.3051 54.0714 12.2644 53.6109 12.2644C52.9607 12.2644 52.3783 12.3593 51.8636 12.5492C51.3624 12.739 50.9087 13.0237 50.5024 13.4034C50.1096 13.7695 49.7506 14.2305 49.4256 14.7864C49.114 15.3288 48.8296 15.9525 48.5722 16.6576V29.6746H44.9355V9.07119H47.0078C47.4006 9.07119 47.6715 9.14576 47.8205 9.29491C47.9695 9.44407 48.0711 9.7017 48.1253 10.0678L48.3691 13.2Z" fill="#FBFBFB"/>
<path d="M63.5563 9.07119V29.6746H59.9399V9.07119H63.5563ZM64.3284 2.60339C64.3284 2.95593 64.2539 3.28814 64.1049 3.6C63.9695 3.89831 63.7798 4.16949 63.536 4.41356C63.3058 4.64407 63.0281 4.82712 62.703 4.96271C62.3915 5.09831 62.0597 5.1661 61.7075 5.1661C61.3553 5.1661 61.0235 5.09831 60.712 4.96271C60.414 4.82712 60.1499 4.64407 59.9196 4.41356C59.6893 4.16949 59.5065 3.89831 59.371 3.6C59.2356 3.28814 59.1679 2.95593 59.1679 2.60339C59.1679 2.25085 59.2356 1.91864 59.371 1.60678C59.5065 1.28136 59.6893 1.00339 59.9196 0.772881C60.1499 0.528814 60.414 0.338984 60.712 0.20339C61.0235 0.0677965 61.3553 0 61.7075 0C62.0597 0 62.3915 0.0677965 62.703 0.20339C63.0281 0.338984 63.3058 0.528814 63.536 0.772881C63.7798 1.00339 63.9695 1.28136 64.1049 1.60678C64.2539 1.91864 64.3284 2.25085 64.3284 2.60339Z" fill="#FBFBFB"/>
<path d="M72.9117 12.061C73.3587 11.5593 73.8327 11.1051 74.3339 10.6983C74.835 10.2915 75.3633 9.94576 75.9186 9.66102C76.4875 9.36271 77.0835 9.13898 77.7065 8.98983C78.3431 8.82712 79.0271 8.74576 79.7585 8.74576C80.8827 8.74576 81.8715 8.93559 82.7248 9.31525C83.5917 9.68136 84.3095 10.2102 84.8784 10.9017C85.4608 11.5797 85.901 12.4 86.199 13.3627C86.497 14.3254 86.646 15.3898 86.646 16.5559V29.6746H83.0092V16.5559C83.0092 14.9966 82.6503 13.7898 81.9324 12.9356C81.2281 12.0678 80.1513 11.6339 78.702 11.6339C77.632 11.6339 76.6297 11.8915 75.6951 12.4068C74.7741 12.922 73.9208 13.6203 73.1352 14.5017V29.6746H69.4984V9.07119H71.6724C72.1871 9.07119 72.5054 9.32203 72.6273 9.82373L72.9117 12.061Z" fill="#FBFBFB"/>
<path d="M109.502 15.3153C108.066 16.0746 106.982 16.9966 106.251 18.0814C105.533 19.1661 105.174 20.3458 105.174 21.6203C105.174 22.5017 105.337 23.2814 105.662 23.9593C105.987 24.6237 106.413 25.1864 106.942 25.6475C107.47 26.1085 108.073 26.461 108.75 26.7051C109.427 26.9356 110.118 27.0508 110.822 27.0508C112.339 27.0508 113.701 26.7729 114.906 26.2169C116.125 25.661 117.188 24.9153 118.096 23.9797L109.502 15.3153ZM128.275 29.6746H124.76C124.367 29.6746 124.049 29.6271 123.805 29.5322C123.561 29.4373 123.297 29.2407 123.012 28.9424L120.067 25.9729C118.793 27.2068 117.324 28.1898 115.658 28.922C114.005 29.6407 112.184 30 110.192 30C109.109 30 108.046 29.817 107.003 29.4508C105.973 29.0847 105.045 28.5559 104.219 27.8644C103.393 27.1593 102.729 26.3051 102.228 25.3017C101.727 24.2983 101.476 23.1661 101.476 21.9051C101.476 20.9559 101.632 20.061 101.944 19.2203C102.269 18.3661 102.716 17.5797 103.285 16.861C103.854 16.1424 104.524 15.4983 105.296 14.9288C106.068 14.3593 106.915 13.8712 107.836 13.4644C107.009 12.4068 106.4 11.3898 106.007 10.4136C105.614 9.42373 105.418 8.4 105.418 7.34237C105.418 6.35254 105.594 5.42373 105.946 4.55593C106.312 3.68814 106.833 2.93559 107.511 2.29831C108.188 1.64746 109.007 1.13898 109.969 0.772881C110.944 0.39322 112.035 0.20339 113.24 0.20339C114.31 0.20339 115.285 0.379662 116.166 0.732204C117.046 1.07119 117.805 1.52542 118.441 2.09492C119.078 2.66441 119.579 3.32881 119.945 4.08814C120.324 4.8339 120.541 5.61356 120.595 6.42712L118.34 6.87458C117.893 6.98305 117.561 6.77288 117.344 6.24407C117.249 5.89153 117.093 5.52542 116.877 5.14576C116.674 4.7661 116.403 4.42034 116.064 4.10847C115.739 3.79661 115.339 3.53898 114.865 3.33559C114.405 3.1322 113.863 3.03051 113.24 3.03051C112.563 3.03051 111.946 3.13898 111.391 3.35593C110.849 3.57288 110.382 3.87797 109.989 4.27119C109.61 4.65085 109.319 5.10509 109.116 5.6339C108.912 6.14915 108.811 6.71186 108.811 7.32203C108.811 7.79661 108.865 8.25085 108.973 8.68475C109.082 9.11865 109.251 9.55932 109.481 10.0068C109.725 10.4542 110.03 10.9085 110.396 11.3695C110.761 11.8305 111.202 12.3186 111.716 12.8339L120.087 21.3559C120.602 20.4339 121.015 19.478 121.326 18.4881C121.638 17.4847 121.841 16.4881 121.936 15.4983C121.963 15.2407 122.044 15.0373 122.179 14.8881C122.315 14.739 122.505 14.6644 122.748 14.6644H124.963C124.949 16.2237 124.706 17.7559 124.231 19.261C123.757 20.7525 123.073 22.1559 122.179 23.4712L128.275 29.6746Z" fill="#FBFBFB"/>
<path d="M157.623 5.08475C157.502 5.28814 157.366 5.44407 157.217 5.55254C157.082 5.64746 156.912 5.69492 156.709 5.69492C156.479 5.69492 156.208 5.57966 155.896 5.34915C155.585 5.11864 155.192 4.8678 154.718 4.59661C154.258 4.31186 153.695 4.05424 153.032 3.82373C152.382 3.59322 151.589 3.47797 150.655 3.47797C149.774 3.47797 148.995 3.6 148.318 3.84407C147.655 4.07458 147.092 4.39322 146.632 4.8C146.185 5.20678 145.846 5.68814 145.616 6.24407C145.386 6.78644 145.271 7.37627 145.271 8.01356C145.271 8.82712 145.467 9.50509 145.86 10.0475C146.266 10.5763 146.794 11.0305 147.445 11.4102C148.108 11.7898 148.853 12.122 149.679 12.4068C150.519 12.678 151.373 12.9627 152.239 13.261C153.12 13.5593 153.973 13.8983 154.799 14.278C155.639 14.6441 156.384 15.1119 157.034 15.6814C157.698 16.2508 158.226 16.9492 158.619 17.7763C159.025 18.6034 159.228 19.6203 159.228 20.8271C159.228 22.1017 159.012 23.3017 158.578 24.4271C158.145 25.539 157.508 26.5085 156.669 27.3356C155.842 28.1627 154.82 28.8136 153.601 29.2881C152.395 29.7627 151.02 30 149.476 30C147.58 30 145.86 29.661 144.316 28.983C142.772 28.2915 141.451 27.3627 140.354 26.1966L141.492 24.3254C141.6 24.1763 141.729 24.0542 141.878 23.9593C142.04 23.8508 142.216 23.7966 142.406 23.7966C142.582 23.7966 142.778 23.8712 142.995 24.0203C143.225 24.1559 143.483 24.3322 143.767 24.5492C144.052 24.7661 144.377 25.0034 144.742 25.261C145.108 25.5186 145.521 25.7559 145.982 25.9729C146.456 26.1898 146.991 26.3729 147.587 26.522C148.183 26.6576 148.853 26.7254 149.598 26.7254C150.533 26.7254 151.366 26.5966 152.097 26.339C152.829 26.0814 153.445 25.722 153.946 25.261C154.461 24.7864 154.854 24.2237 155.124 23.5729C155.395 22.922 155.531 22.1966 155.531 21.3966C155.531 20.5153 155.328 19.7966 154.921 19.2407C154.528 18.6712 154.007 18.1966 153.357 17.8169C152.707 17.4373 151.962 17.1186 151.122 16.861C150.282 16.5898 149.429 16.3186 148.562 16.0475C147.695 15.7627 146.842 15.4373 146.002 15.0712C145.162 14.7051 144.417 14.2305 143.767 13.6475C143.117 13.0644 142.589 12.339 142.183 11.4712C141.79 10.5898 141.593 9.50509 141.593 8.21695C141.593 7.18644 141.79 6.18983 142.183 5.22712C142.589 4.26441 143.171 3.41017 143.93 2.66441C144.702 1.91865 145.643 1.32204 146.754 0.874578C147.878 0.427119 149.165 0.20339 150.614 0.20339C152.239 0.20339 153.716 0.461018 155.043 0.976274C156.384 1.49153 157.562 2.23729 158.578 3.21356L157.623 5.08475Z" fill="#FBFBFB"/>
<path d="M177.597 17.1254C177.597 16.2847 177.475 15.5186 177.231 14.8271C177.001 14.122 176.655 13.5186 176.195 13.0169C175.748 12.5017 175.199 12.1085 174.549 11.8373C173.899 11.5525 173.161 11.4102 172.335 11.4102C170.601 11.4102 169.226 11.9186 168.21 12.9356C167.208 13.939 166.585 15.3356 166.341 17.1254H177.597ZM180.522 26.7864C180.075 27.3288 179.54 27.8034 178.917 28.2102C178.294 28.6034 177.624 28.9288 176.906 29.1864C176.202 29.4441 175.47 29.6339 174.712 29.7559C173.953 29.8915 173.201 29.9593 172.456 29.9593C171.034 29.9593 169.72 29.722 168.515 29.2475C167.323 28.7593 166.287 28.0542 165.406 27.1322C164.54 26.1966 163.862 25.0441 163.375 23.6746C162.887 22.3051 162.643 20.7322 162.643 18.9559C162.643 17.5186 162.86 16.1763 163.293 14.9288C163.74 13.6814 164.377 12.6034 165.203 11.6949C166.029 10.7729 167.039 10.0542 168.23 9.53898C169.422 9.01017 170.763 8.74576 172.253 8.74576C173.486 8.74576 174.624 8.95593 175.667 9.37627C176.723 9.78305 177.631 10.3797 178.389 11.1661C179.161 11.939 179.764 12.9017 180.197 14.0542C180.631 15.1932 180.847 16.4949 180.847 17.9593C180.847 18.5288 180.786 18.9085 180.665 19.0983C180.543 19.2881 180.312 19.3831 179.974 19.3831H166.219C166.26 20.6847 166.436 21.8169 166.747 22.7797C167.072 23.7424 167.519 24.5492 168.088 25.2C168.657 25.8373 169.334 26.3186 170.12 26.6441C170.906 26.9559 171.786 27.1119 172.761 27.1119C173.669 27.1119 174.448 27.0102 175.098 26.8068C175.761 26.5898 176.33 26.3593 176.804 26.1153C177.278 25.8712 177.671 25.6475 177.983 25.4441C178.308 25.2271 178.585 25.1186 178.816 25.1186C179.114 25.1186 179.344 25.2339 179.506 25.4644L180.522 26.7864Z" fill="#FBFBFB"/>
<path d="M188.723 13.2C189.373 11.7898 190.172 10.6915 191.12 9.90509C192.069 9.10509 193.227 8.70509 194.595 8.70509C195.028 8.70509 195.441 8.75254 195.834 8.84746C196.24 8.94237 196.599 9.09153 196.911 9.29491L196.647 12C196.565 12.339 196.362 12.5085 196.037 12.5085C195.848 12.5085 195.57 12.4678 195.204 12.3864C194.838 12.3051 194.425 12.2644 193.965 12.2644C193.315 12.2644 192.732 12.3593 192.218 12.5492C191.716 12.739 191.263 13.0237 190.856 13.4034C190.464 13.7695 190.105 14.2305 189.78 14.7864C189.468 15.3288 189.184 15.9525 188.926 16.6576V29.6746H185.289V9.07119H187.362C187.755 9.07119 188.026 9.14576 188.175 9.29491C188.324 9.44407 188.425 9.7017 188.479 10.0678L188.723 13.2Z" fill="#FBFBFB"/>
<path d="M203.91 9.07119V29.6746H200.294V9.07119H203.91ZM204.682 2.60339C204.682 2.95593 204.608 3.28814 204.459 3.6C204.323 3.89831 204.134 4.16949 203.89 4.41356C203.66 4.64407 203.382 4.82712 203.057 4.96271C202.746 5.09831 202.414 5.1661 202.061 5.1661C201.709 5.1661 201.377 5.09831 201.066 4.96271C200.768 4.82712 200.504 4.64407 200.274 4.41356C200.043 4.16949 199.86 3.89831 199.725 3.6C199.59 3.28814 199.522 2.95593 199.522 2.60339C199.522 2.25085 199.59 1.91864 199.725 1.60678C199.86 1.28136 200.043 1.00339 200.274 0.772881C200.504 0.528814 200.768 0.338984 201.066 0.20339C201.377 0.0677965 201.709 0 202.061 0C202.414 0 202.746 0.0677965 203.057 0.20339C203.382 0.338984 203.66 0.528814 203.89 0.772881C204.134 1.00339 204.323 1.28136 204.459 1.60678C204.608 1.91864 204.682 2.25085 204.682 2.60339Z" fill="#FBFBFB"/>
<path d="M213.266 12.061C213.713 11.5593 214.187 11.1051 214.688 10.6983C215.189 10.2915 215.717 9.94576 216.273 9.66102C216.841 9.36271 217.437 9.13898 218.061 8.98983C218.697 8.82712 219.381 8.74576 220.113 8.74576C221.237 8.74576 222.225 8.93559 223.079 9.31525C223.946 9.68136 224.664 10.2102 225.232 10.9017C225.815 11.5797 226.255 12.4 226.553 13.3627C226.851 14.3254 227 15.3898 227 16.5559V29.6746H223.363V16.5559C223.363 14.9966 223.004 13.7898 222.286 12.9356C221.582 12.0678 220.505 11.6339 219.056 11.6339C217.986 11.6339 216.984 11.8915 216.049 12.4068C215.128 12.922 214.275 13.6203 213.489 14.5017V29.6746H209.852V9.07119H212.026C212.541 9.07119 212.859 9.32203 212.981 9.82373L213.266 12.061Z" fill="#FBFBFB"/>
</svg>
