<svg width="120" height="120" viewBox="0 0 120 120" fill="none" xmlns="http://www.w3.org/2000/svg">
<circle cx="60" cy="60" r="60" fill="#164067" fill-opacity="0.5"/>
<path fill-rule="evenodd" clip-rule="evenodd" d="M48.2561 74.7117H44.1705H37.62H33.5344L25.0547 83.1914V94.9454H56.7358V83.1914L48.2561 74.7117Z" fill="#D0DBEF"/>
<path fill-rule="evenodd" clip-rule="evenodd" d="M94.9453 83.1914L86.4656 74.7117H82.3801H75.8293H71.7439L63.2642 83.1914V94.9454H94.9453V83.1914Z" fill="#ED9B88"/>
<path fill-rule="evenodd" clip-rule="evenodd" d="M88.3105 64.5367L85.1266 60.9737H69.8992V68.0996L75.8293 74.7116H82.38L88.3103 68.0996L88.3105 64.5367Z" fill="#FADFC0"/>
<path fill-rule="evenodd" clip-rule="evenodd" d="M88.3103 60.9737C88.3103 55.9105 84.1678 51.7679 79.1047 51.7679C74.0417 51.7679 69.8992 55.9105 69.8992 60.9737H85.1266L88.3103 64.5366V60.9737Z" fill="#F7EC91"/>
<path fill-rule="evenodd" clip-rule="evenodd" d="M85.7175 27.1642L83.6081 25.0547H62.9007L60.7913 27.1642L62.9007 29.2736V42.7793H81.376L85.716 45.6619L85.7175 27.1642Z" fill="#A7EED4"/>
<path fill-rule="evenodd" clip-rule="evenodd" d="M31.6895 64.5367L34.8734 60.9737H50.1008V68.0996L44.1705 74.7116H37.62L31.6897 68.0996L31.6895 64.5367Z" fill="#FADFC0"/>
<path fill-rule="evenodd" clip-rule="evenodd" d="M31.6897 60.9737C31.6897 55.9105 35.8322 51.7679 40.8952 51.7679C45.9583 51.7679 50.1008 55.9105 50.1008 60.9737H34.8734L31.6897 64.5366V60.9737Z" fill="#5A5A5D"/>
<path fill-rule="evenodd" clip-rule="evenodd" d="M37.7531 74.7117H37.62H33.5344L25.0547 83.1914V94.9454H29.2734V83.1914L37.7531 74.7117Z" fill="#A0B6DE"/>
<path fill-rule="evenodd" clip-rule="evenodd" d="M75.9626 74.7117H75.8293H71.7439L63.2642 83.1914V94.9454H67.4829V83.1914L75.9626 74.7117Z" fill="#E76C4C"/>
<path fill-rule="evenodd" clip-rule="evenodd" d="M31.6895 64.5367L34.8734 60.9737H35.9084V64.5364L35.9083 64.5367L35.9084 68.0996L41.8386 74.7116H37.62L31.6897 68.0996L31.6895 64.5367Z" fill="#F2D1A5"/>
<path fill-rule="evenodd" clip-rule="evenodd" d="M31.6897 60.9737C31.6897 55.9105 35.8322 51.7679 40.8952 51.7679C41.6204 51.7679 42.3267 51.8533 43.0046 52.0138C38.9493 52.9738 35.9084 56.6357 35.9084 60.9737H34.8734L31.6897 64.5366V60.9737Z" fill="#4B4B4E"/>
<path fill-rule="evenodd" clip-rule="evenodd" d="M74.1179 60.9737H69.8992V68.0996L75.8293 74.7116H80.0481L74.1179 68.0996V60.9737Z" fill="#F2D1A5"/>
<path fill-rule="evenodd" clip-rule="evenodd" d="M81.2141 52.0136C80.5362 51.8532 79.8299 51.7678 79.1047 51.7678C74.0417 51.7678 69.8992 55.9103 69.8992 60.9735H74.1179C74.1179 56.6356 77.1588 52.9738 81.2141 52.0136Z" fill="#EDD52E"/>
<path fill-rule="evenodd" clip-rule="evenodd" d="M60.7913 27.1642H40.0838L37.9743 29.2736L37.976 47.7714L42.3158 44.8889H60.7913L62.9007 42.7795V29.2736L60.7913 27.1642Z" fill="#F7EC91"/>
<path fill-rule="evenodd" clip-rule="evenodd" d="M44.3025 27.1642H40.0839L37.9743 29.2736L37.976 47.7714L42.1945 44.9696L42.1931 29.2736L44.3025 27.1642Z" fill="#EDD52E"/>
<path d="M89.6719 89.6719H91.7812V91.7812H89.6719V89.6719Z" fill="white"/>
<path d="M51.4624 89.6719H53.5717V91.7812H51.4624V89.6719Z" fill="white"/>
<path d="M83.3439 89.6719H87.5626V91.7812H83.3439V89.6719Z" fill="white"/>
<path d="M45.1344 89.6719H49.3531V91.7812H45.1344V89.6719Z" fill="white"/>
<path fill-rule="evenodd" clip-rule="evenodd" d="M67.1194 25.0547H62.9007L60.7913 27.1641L62.9007 29.2734V42.7792H67.1194V29.2736L65.01 27.1642L67.1194 25.0547ZM81.376 42.7793L85.716 45.6619L85.7162 42.8601L85.5947 42.7793H81.376Z" fill="#71E4BF"/>
<path d="M53.6016 32.0307H55.7109V39.3256H53.6016V32.0307Z" fill="black"/>
<path d="M45.1641 36.2151H47.2734V39.3255H45.1641V36.2151Z" fill="black"/>
<path d="M49.3828 34.1399H51.4922V39.3254H49.3828V34.1399Z" fill="black"/>
<path d="M86.9025 73.6569H84.7427L89.3649 68.5032V60.9737C89.3649 55.3161 84.7622 50.7133 79.1046 50.7133C73.4473 50.7133 68.8445 55.3161 68.8445 60.9737V68.5032L73.4667 73.6569H71.3068L62.2094 82.7544V96H71.7922V93.8906H64.3187V83.6281L72.1805 75.7663H86.0287L93.8906 83.6281V93.8906H73.9018V96H96V82.7545L86.9025 73.6569ZM79.1046 52.8225C83.599 52.8225 87.2555 56.479 87.2555 60.9735V61.7731L85.5985 59.9189H71.0244C71.5435 55.9212 74.9678 52.8225 79.1046 52.8225ZM70.954 67.6958V62.0284H84.6547L87.2557 64.939V67.6958L81.9095 73.6569H76.3003L70.954 67.6958Z" fill="black"/>
<path d="M81.0576 43.834L86.7705 47.6284L86.7711 40.3887L84.6617 40.3886L84.6614 43.6955L81.6944 41.7247H63.9554V28.8368L62.2828 27.1641L63.3375 26.1094H83.1712L84.663 27.601L84.6618 38.2791L86.7712 38.2793L86.7723 26.7273L84.0449 24H62.4639L60.3544 26.1094H45.3573V28.2188H60.3544L61.846 29.7104V42.3426L60.3545 43.8342H41.9975L39.0306 45.8049L39.029 29.7104L40.5206 28.2188H43.2478V26.1094H39.6471L36.9196 28.8368L36.9215 49.7378L42.6342 45.9435H61.2281L63.3376 43.834H81.0576Z" fill="black"/>
<path d="M46.5332 73.6569L51.1554 68.5032V60.9737C51.1554 55.3161 46.5527 50.7133 40.8953 50.7133C35.2378 50.7133 30.635 55.3161 30.635 60.9737V68.5032L35.2572 73.6569H33.0975L24 82.7545V96H57.7905V82.7545L48.693 73.6571H46.5332V73.6569ZM32.7445 67.6958V64.9389L35.3453 62.0284H37.9081V59.919H34.4013L32.7445 61.7731V60.9737C32.7445 56.4792 36.401 52.8226 40.8954 52.8226C45.0322 52.8226 48.4565 55.9213 48.9756 59.919H40.0175V62.0284H49.046V67.6958L43.6999 73.6569H38.0906L32.7445 67.6958ZM55.6811 93.8906H26.1094V83.6281L33.9712 75.7663H47.8193L55.6811 83.6281V93.8906Z" fill="black"/>
<path d="M67.981 34.3037H70.1183V36.4131H67.981V34.3037Z" fill="black"/>
<path d="M72.2207 34.3037H74.3231V36.4131H72.2207V34.3037Z" fill="black"/>
<path d="M76.4256 34.3037H78.5279V36.4131H76.4256V34.3037Z" fill="black"/>
</svg>
